<?xml version="1.0" standalone="no"?>
<!DOCTYPE svg PUBLIC "-//W3C//DTD SVG 20010904//EN"
 "http://www.w3.org/TR/2001/REC-SVG-20010904/DTD/svg10.dtd">
<svg version="1.0" xmlns="http://www.w3.org/2000/svg"
 width="512.000000pt" height="512.000000pt" viewBox="0 0 512.000000 512.000000"
 preserveAspectRatio="xMidYMid meet">
<metadata>
Created by potrace 1.14, written by Peter Selinger 2001-2017
</metadata>
<g transform="translate(0.000000,512.000000) scale(0.100000,-0.100000)"
fill="#000000" stroke="none">
<path d="M3158 4303 c-16 -19 -21 -42 -69 -296 -75 -405 -118 -778 -140 -1207
-14 -270 -9 -531 21 -1125 27 -529 28 -658 6 -709 l-16 -39 -54 6 c-93 9 -163
72 -230 204 -149 297 -226 876 -227 1703 0 223 -3 467 -7 544 l-7 138 28 14
c22 12 27 21 27 54 0 48 -21 63 -84 59 -30 -2 -53 3 -72 16 -38 26 -106 24
-169 -4 -62 -28 -87 -51 -188 -176 -144 -179 -247 -351 -296 -493 -24 -72 -26
-95 -8 -111 19 -15 27 -4 27 37 0 39 83 198 178 342 73 111 208 245 290 288
125 66 140 34 88 -189 -171 -741 -257 -1410 -260 -2039 -1 -228 2 -280 14
-305 9 -18 23 -30 35 -30 18 0 22 12 36 100 17 99 19 126 39 420 28 401 80
898 130 1225 31 198 65 388 72 395 2 2 2 -107 0 -243 -5 -284 26 -842 59
-1077 62 -439 164 -742 296 -886 78 -84 133 -109 238 -109 102 0 137 19 170
93 40 87 47 181 30 405 -34 472 -40 617 -40 1087 0 373 5 543 18 710 29 374
90 810 112 801 9 -3 14 18 18 67 3 40 12 128 19 196 12 118 11 124 -7 137 -26
19 -59 18 -77 -3z"/>
</g>
</svg>
